<?xml version="1.0" encoding="UTF-8"?> <!-- Generator: Adobe Illustrator 15.1.0, SVG Export Plug-In --> <svg xmlns="http://www.w3.org/2000/svg" xmlns:xlink="http://www.w3.org/1999/xlink" xmlns:a="http://ns.adobe.com/AdobeSVGViewerExtensions/3.0/" x="0px" y="0px" width="450px" height="475px" viewBox="0.218 0.518 450 475" overflow="visible" xml:space="preserve"> <defs> </defs> <path display="none" fill="#BB161A" d="M18.042,299.887c-20.432,20.431-20.432,53.558,0,73.993l68.217,68.213 c20.428,20.433,53.559,20.433,73.99,0l82.667-82.664l-142.211-142.21L18.042,299.887z"></path> <path display="none" fill="#BB161A" d="M430.795,97.557l-68.217-68.213c-20.428-20.435-53.56-20.435-73.99,0l-82.668,82.667 l142.211,142.207l82.664-82.667C451.227,151.116,451.227,117.989,430.795,97.557z"></path> <polygon display="none" fill="#FFFFFF" points="100.706,217.219 242.917,359.429 348.131,254.218 205.92,112.011 "></polygon> <path fill="#BB161A" stroke="#FFFFFF" stroke-width="2.4369" stroke-miterlimit="10" d="M319.368,358.702 c-2.887-3.672-6.626-6.262-10.707-7.766v-16.689c0-16.151-13.094-29.245-29.243-29.245H38.719 c-16.151,0-29.243,13.094-29.243,29.245v48.881c0,16.149,13.091,29.243,29.243,29.243h173.011l-10.542,8.293l-103.906,1.119 c-13.458,0.143-24.25,11.171-24.105,24.628c0.143,13.37,11.026,24.107,24.362,24.107c0.088,0,0.179,0,0.267-0.002L210,469.309 c5.376-0.057,10.581-1.89,14.805-5.214l90.478-71.175C325.86,384.6,327.69,369.28,319.368,358.702z"></path> <path fill="#ED1F24" stroke="#FFFFFF" stroke-width="2.4369" stroke-miterlimit="10" d="M46.572,171.393 c0-58.298,62.924-56.82,140.545-56.82c77.619,0,140.543-1.478,140.543,56.82l-94.579,156.711l-81.632-5.368L46.572,171.393z"></path> <g> <path fill="#ED1F24" d="M187.115,137.504c-20.493,0-37.884-5.925-50.294-17.135c-13.865-12.524-20.895-30.71-20.895-54.054 c0-37.72,29.939-65.097,71.188-65.097c21.235,0,40.233,7.347,53.494,20.688c11.681,11.751,17.8,27.11,17.696,44.417 c-0.145,23.829-7.214,42.167-21.013,54.503C225.088,131.737,207.737,137.504,187.115,137.504z"></path> <path fill="#FFFFFF" d="M187.115,2.437c38.646,0,70.204,25.238,69.971,63.878c-0.3,49.645-31.326,69.971-69.971,69.971 c-38.645,0-69.97-21.532-69.97-69.971C117.145,27.672,148.47,2.437,187.115,2.437 M187.115,0c-19.709,0-37.852,6.412-51.086,18.055 c-13.749,12.096-21.321,29.235-21.321,48.26c0,23.369,7.364,42.373,21.297,54.958c12.637,11.416,30.311,17.45,51.11,17.45 c20.926,0,38.558-5.875,50.99-16.989c14.066-12.576,21.272-31.217,21.418-55.404c0.106-17.638-6.136-33.296-18.05-45.283 C227.982,7.475,208.677,0,187.115,0L187.115,0z"></path> </g> <g> <path fill="#BB161A" d="M370.488,431.504c-39.254,0-71.189-31.936-71.189-71.189s31.936-71.189,71.189-71.189 s71.189,31.936,71.189,71.189S409.742,431.504,370.488,431.504z"></path> <g> <path fill="#FFFFFF" d="M370.488,290.344c38.646,0,69.971,31.327,69.971,69.971c0,38.643-31.325,69.971-69.971,69.971 s-69.971-31.328-69.971-69.971C300.517,321.671,331.842,290.344,370.488,290.344 M370.488,287.908 c-39.926,0-72.407,32.481-72.407,72.407s32.481,72.407,72.407,72.407s72.407-32.481,72.407-72.407 S410.414,287.908,370.488,287.908L370.488,287.908z"></path> </g> </g> <g> <path fill="#ED1F24" d="M175.84,361.605c-12.965,0-23.75-4.122-24.326-17.204c-0.592-13.445,9.826-24.826,23.272-25.418 l41.075-8.979l65.789-155.241c4.367-12.729,18.22-19.514,30.959-15.143c12.729,4.367,19.51,18.227,15.143,30.959l-71.177,170.945 c-3.251,9.474-11.969,15.994-21.978,16.438l-57.665,3.619C176.568,361.597,176.202,361.605,175.84,361.605z"></path> </g> <path fill="none" stroke="#FFFFFF" stroke-width="2.4369" stroke-miterlimit="10" d="M306.248,129.049 c12.729,4.367,25.871,28.798,21.504,41.53l-71.177,170.945c-3.251,9.474-11.969,15.994-21.978,16.438l-57.665,3.619 c-0.364,0.017-0.73,0.024-1.092,0.024c-12.965,0-23.75-4.122-24.326-17.204c-0.592-13.445,9.826-24.826,23.272-25.418l41.075-8.979 l62.236-146.859"></path> <g> <path fill="#ED1F24" d="M198.105,361.605c-0.364,0-0.729-0.008-1.092-0.024l-57.665-3.619 c-10.009-0.443-18.727-6.964-21.977-16.438L46.194,170.579c-4.367-12.732,2.413-26.592,15.143-30.959 c12.739-4.367,26.592,2.413,30.958,15.143l65.79,155.241l41.075,8.979c13.446,0.592,23.864,11.973,23.272,25.418 C221.855,357.481,211.068,361.605,198.105,361.605z"></path> </g> <path fill="none" stroke="#FFFFFF" stroke-width="2.4369" stroke-miterlimit="10" d="M97.907,167.999l60.178,142.004l41.075,8.979 c13.446,0.592,23.864,11.973,23.272,25.418c-0.576,13.08-11.364,17.204-24.326,17.204c-0.364,0-0.729-0.008-1.092-0.024 l-57.665-3.619c-10.009-0.443-18.727-6.964-21.977-16.438L46.194,170.579c-4.367-12.732,1.887-30.671,17.57-39.117"></path> <polygon fill="#FFFFFF" stroke="#FFFFFF" stroke-width="10.5281" stroke-miterlimit="10" points="223.129,200.805 196.116,200.805 196.116,173.792 180.649,173.792 180.649,200.805 153.637,200.805 153.637,216.271 180.649,216.271 180.649,243.284 196.116,243.284 196.116,216.271 223.129,216.271 "></polygon> <g display="none"> <path display="inline" fill="#ED1F24" d="M254.062,122.928v-0.922c0-9.656,7.856-17.512,17.513-17.512s17.513,7.856,17.513,17.512 v0.922H254.062z"></path> <path display="inline" fill="#FFFFFF" d="M271.575,105.416c9.162,0,16.591,7.428,16.591,16.59h-33.182 C254.984,112.843,262.412,105.416,271.575,105.416 M271.575,103.572c-10.165,0-18.435,8.269-18.435,18.434v1.843h1.844h33.182 h1.844v-1.843C290.009,111.841,281.74,103.572,271.575,103.572L271.575,103.572z"></path> </g> <path display="none" fill="#ED1F24" d="M437.892,242.883c-2.285-1.666-5.131-3.2-8.657-4.555l-40.47-14.583l-49.225-82.954 c-3.499-11.226-9.463-16.818-16.818-16.818H26.543c-7.755,0-14.267,5.257-16.211,12.397l-3.409,67.971l-0.018,38.541H437.892z M291.882,144.43h34.576l47.992,81.986h-84.876L291.882,144.43z"></path> <path display="none" fill="#BB161A" d="M66.903,302.847c-19.479,0-35.271,15.791-35.271,35.27c0,19.479,15.792,35.271,35.271,35.271 c19.478,0,35.27-15.791,35.27-35.271C102.172,318.638,86.381,302.847,66.903,302.847z M66.903,351.702 c-7.503,0-13.583-6.082-13.583-13.585c0-7.502,6.081-13.584,13.583-13.584c7.501,0,13.583,6.082,13.583,13.584 C80.486,345.62,74.404,351.702,66.903,351.702z"></path> <path display="none" fill="#BB161A" d="M346.423,302.847c-19.48,0-35.271,15.791-35.271,35.27c0,19.479,15.791,35.271,35.271,35.271 c19.478,0,35.27-15.791,35.27-35.271C381.693,318.638,365.901,302.847,346.423,302.847z M346.423,351.702 c-7.503,0-13.584-6.082-13.584-13.585c0-7.502,6.081-13.584,13.584-13.584c7.501,0,13.583,6.082,13.583,13.584 C360.006,345.62,353.924,351.702,346.423,351.702z"></path> <path display="none" fill="#FFFFFF" d="M3.967,259h439.887l2.198-3.854c-0.862-4.382-3.181-8.635-8.16-12.263H6.905L3.967,259z"></path> <path display="none" fill="#BB161A" d="M3.967,259l-1.249,45.297c0,9.288,7.53,16.818,16.818,16.818h6.61 c1.537-21.148,19.222-37.89,40.756-37.89c21.533,0,39.218,16.741,40.755,37.89h160.874h37.135 c1.537-21.148,19.223-37.89,40.757-37.89c21.532,0,39.218,16.741,40.755,37.89h14.026c9.288,0,16.818-7.53,16.818-16.818 L443.854,259H3.967z"></path> <g display="none"> <polygon display="inline" fill="#FFFFFF" points="117.081,167.012 117.081,143.119 94.087,143.119 94.087,167.012 70.194,167.012 70.194,190.004 94.087,190.004 94.087,213.898 117.081,213.898 117.081,190.004 140.973,190.004 140.973,167.012 "></polygon> </g> <circle display="none" fill="#ED1F24" cx="227.436" cy="78.483" r="77.965"></circle> <path display="none" fill="#ED1F24" d="M386.867,108.909c-8.7-11.928-25.419-14.544-37.347-5.85l-79.743,58.149h-90.86 c-0.171-0.135-0.326-0.278-0.503-0.41l-81.144-59.17c-11.928-8.7-28.646-6.078-37.346,5.85c-8.697,11.928-6.079,28.646,5.849,37.347 l81.144,59.17c0.83,0.604,1.688,1.133,2.559,1.628v109.249l-65.864,55.496c-6.559,5.526-10.068,13.862-9.433,22.419 c0.632,8.552,5.334,16.281,12.638,20.78l89.408,55.075c4.37,2.692,9.212,3.978,13.994,3.978c8.972,0,17.734-4.516,22.783-12.715 c7.744-12.569,3.829-29.036-8.74-36.777l-57.94-35.692l40.14-33.82h69.544l39.71,33.46l-57.942,35.692 c-12.569,7.741-16.479,24.205-8.74,36.774c5.055,8.201,13.814,12.718,22.785,12.718c4.779-0.003,9.625-1.285,13.994-3.979 l89.409-55.078c7.303-4.495,12.002-12.226,12.638-20.779c0.635-8.554-2.874-16.89-9.433-22.416l-64.614-54.44V208.728 c2.106-0.819,4.147-1.909,6.059-3.303l81.146-59.17C392.945,137.555,395.561,120.836,386.867,108.909z"></path> <path display="none" fill="#FFFFFF" d="M188.484,350.724c-7.967,0-36.122-28.154-36.122-36.121v-16.859 c0-7.964,6.482-14.449,14.449-14.449h109.665c7.967,0,14.449,6.485,14.449,14.449v16.859c0,7.967-24.543,36.121-32.51,36.121 H188.484z"></path> <path display="none" opacity="0.7" fill="#FFFFFF" d="M269.23,239.398c-0.332-18.084-9.375-37.842-11.388-42.194 c-2.009-4.353-14.062-20.425-22.771-22.439c-8.706-2.009-8.369,3.686-9.376,6.027c-1.007,2.347,0.338,13.731-0.337,16.078 c-0.206,0.732-0.55,1.007-0.916,1.039V174.3c0-1.093-1.202-1.986-2.681-1.986c-1.48,0-2.676,0.893-2.676,1.986v23.599 c-0.361-0.043-0.687-0.318-0.89-1.03c-0.673-2.347,0.667-13.731-0.338-16.078c-1.004-2.341-0.667-8.036-9.378-6.027 c-8.706,2.015-20.76,18.086-22.769,22.439c-2.009,4.353-11.052,24.11-11.39,42.194c-0.332,18.083,0.673,27.791,1.677,28.798 c1.007,1.008,1.866,2.066,8.706-4.353c4.997-4.69,18.086-8.709,24.448-11.053c6.362-2.341,10.717-13.058,11.049-18.083 c0.338-5.02-2.679-31.479-0.669-31.814c2.009-0.329,2.009-0.329,2.009-0.329l-0.054-0.463c0.094,0.005,0.18,0.017,0.275,0.017 c0.105,0,0.206-0.012,0.306-0.023l-0.055,0.469c0,0,0,0,2.009,0.329c2.012,0.335-1.005,26.795-0.67,31.814 c0.335,5.026,4.69,15.743,11.05,18.083c6.364,2.344,16.581,3.684,24.447,11.053c6.85,6.41,7.701,5.36,8.709,4.353 C268.56,267.189,269.568,257.481,269.23,239.398z"></path> <path display="none" fill="#BB161A" d="M248.531,196.371c-3.906-0.097-5.475,3.2-6.07,5.226c-0.596-2.026-2.166-5.323-6.072-5.226 c-5.627,0.143-8.689,3.989-8.334,7.406c0.34,3.246,13.072,16.51,14.352,17.835l0.003,0.108c0,0,0.017-0.02,0.052-0.054 c0.031,0.034,0.051,0.054,0.051,0.054v-0.108c1.279-1.325,14.012-14.589,14.35-17.835 C257.216,200.36,254.157,196.514,248.531,196.371z"></path> <path display="none" fill="#ED1F24" d="M419.64,113.666h-24.078c-2.707-7.157-9.604-12.258-17.711-12.258 s-15.006,5.101-17.713,12.258H322.75V89.855c0-24.863-16.27-44.337-37.037-44.337H162.42c-20.771,0-37.041,19.474-37.041,44.337 v23.811H82.393c-2.707-7.157-9.604-12.258-17.71-12.258c-8.108,0-15.009,5.101-17.715,12.258H28.488 c-14.919,0-27.02,12.1-27.02,27.02v253.615c0,14.922,12.1,27.02,27.02,27.02H419.64c14.922,0,27.02-12.098,27.02-27.02V140.686 C446.66,125.766,434.562,113.666,419.64,113.666z M160.009,89.855c0-5.433,2.102-8.764,3.139-9.708h121.838 c1.037,0.944,3.137,4.278,3.137,9.708v23.811H160.009V89.855z"></path> <path display="none" fill="#BB161A" d="M29.016,421.321h391.149c14.922,0,27.02-12.098,27.02-27.02V140.686 c0-14.92-12.098-27.02-27.02-27.02h-6.484C355.326,175.132,267.195,261.56,212.384,285.16 c-54.302,23.381-146.899,66.844-210.388,96.832v12.31C1.997,409.223,14.092,421.321,29.016,421.321z"></path> <polygon display="none" fill="#FFFFFF" points="257.425,231.91 257.425,162.581 190.708,162.581 190.708,231.91 121.381,231.91 121.381,298.625 190.708,298.625 190.708,367.951 257.425,367.951 257.425,298.625 326.75,298.625 326.75,231.91 "></polygon> <path display="none" fill="#BB161A" d="M341.446,238.209c-0.886,0.049-1.772,0.11-2.656,0.186l-0.104,0.009 c-3.569,0.303-7.147,0.82-10.651,1.538l-0.183,0.037c-3.453,0.715-6.918,1.646-10.284,2.759l-0.242,0.081 c-0.802,0.269-1.574,0.535-2.345,0.817l0,0c0.95,5.279,1.45,10.714,1.45,16.267c0,39.413-25.028,72.976-60.055,85.674 c0,0,0,0,0,0.002l0.096,0.532c0.148,0.799,0.305,1.604,0.477,2.403l0.025,0.116c0.198,0.937,0.407,1.844,0.629,2.736l0.025,0.098 c0.198,0.806,0.413,1.626,0.64,2.439l0.134,0.474c0.206,0.732,0.424,1.463,0.651,2.195l0.11,0.366 c0.541,1.715,1.134,3.43,1.771,5.104l0.125,0.326c0.282,0.727,0.572,1.447,0.869,2.169l0.174,0.421 c0.331,0.79,0.675,1.573,1.026,2.353l0.029,0.069c0.386,0.857,0.793,1.709,1.2,2.54c1.21,2.459,2.538,4.849,3.957,7.177 c47.744-17.517,81.81-63.378,81.81-117.194c0-7.436-0.651-14.72-1.901-21.799c-0.59-0.012-1.18-0.031-1.771-0.031 C344.79,238.073,343.107,238.12,341.446,238.209z"></path> <path display="none" fill="#BB161A" d="M148.816,170.988c0.998,1.567,2.055,3.134,3.154,4.651l0.09,0.128 c0.512,0.698,1.035,1.404,1.573,2.101l0.107,0.143c1.675,2.166,3.477,4.291,5.349,6.308l0.189,0.201 c0.596,0.64,1.197,1.267,1.808,1.889l0.084,0.082c1.288,1.299,2.619,2.564,3.979,3.785l0.229,0.204 c0.157,0.14,0.32,0.276,0.477,0.416c15.959-13.767,36.743-22.092,59.471-22.092c23.1,0,44.187,8.602,60.247,22.772 c0.439-0.378,0.881-0.755,1.313-1.142l0.187-0.166c1.387-1.241,2.741-2.529,4.026-3.828c0.651-0.663,1.268-1.306,1.878-1.959 l0.163-0.172c1.884-2.035,3.688-4.166,5.366-6.34l0.106-0.137c0.541-0.706,1.072-1.421,1.596-2.142l0.041-0.053 c1.113-1.543,2.178-3.116,3.174-4.694c1.169-1.843,2.263-3.727,3.292-5.642c-21.852-18.813-50.292-30.193-81.389-30.193 c-30.586,0-58.593,11.011-80.299,29.274C146.203,166.628,147.456,168.834,148.816,170.988z"></path> <path display="none" fill="#BB161A" d="M134,242.793l-0.523-0.175c-1.66-0.544-3.343-1.041-4.997-1.482l-0.244-0.061 c-0.744-0.195-1.488-0.378-2.235-0.556l-0.535-0.122c-0.687-0.157-1.375-0.305-2.062-0.448l-0.488-0.101 c-1.738-0.347-3.479-0.644-5.177-0.885l-0.151-0.017c-0.802-0.113-1.593-0.212-2.39-0.299l-0.505-0.054 c-0.712-0.078-1.424-0.147-2.137-0.203l-0.482-0.044c-0.849-0.063-1.701-0.122-2.549-0.165c-1.517-0.076-3.055-0.114-4.569-0.114 c-0.843,0-1.683,0.021-2.526,0.045c-1.245,7.075-1.898,14.355-1.898,21.789c0,54.047,34.361,100.062,82.423,117.412 c1.471-2.395,2.843-4.856,4.09-7.395c0.41-0.831,0.811-1.683,1.201-2.54l0.029-0.062c0.354-0.787,0.694-1.57,1.026-2.357 l0.174-0.427c0.299-0.719,0.59-1.439,0.869-2.166l0.128-0.331c0.63-1.669,1.23-3.384,1.768-5.099l0.116-0.375 c0.224-0.724,0.442-1.454,0.648-2.192l0.131-0.468c0.224-0.813,0.442-1.634,0.646-2.453l0.029-0.103 c0.212-0.874,0.419-1.781,0.616-2.677l0.029-0.147c0.171-0.809,0.332-1.614,0.479-2.419l0.05-0.282 c-35.391-12.502-60.756-46.244-60.756-85.92c0-5.64,0.514-11.156,1.497-16.514C135.148,243.182,134.573,242.982,134,242.793z"></path> <path display="none" fill="#ED1F24" d="M53.298,244.479c15.607-9.5,33.469-14.523,51.657-14.523c1.651,0,3.322,0.044,4.973,0.125 c0.924,0.047,1.852,0.111,2.776,0.18l0.526,0.044c0.773,0.067,1.55,0.14,2.32,0.221l0.552,0.058c0.87,0.099,1.733,0.206,2.593,0.325 l0.18,0.024c1.842,0.261,3.738,0.584,5.625,0.958l0.532,0.111c0.752,0.153,1.497,0.316,2.241,0.484l0.587,0.138 c0.808,0.188,1.619,0.392,2.427,0.604l0.268,0.067c1.805,0.48,3.633,1.021,5.444,1.61l0.561,0.189 c0.706,0.235,1.407,0.477,2.104,0.727l0.634,0.229c0.738,0.271,1.479,0.55,2.215,0.84l0.387,0.148 c0.854,0.341,1.698,0.688,2.497,1.032l0.296,0.128c0.796,0.343,1.587,0.703,2.378,1.069l0.607,0.291 c0.642,0.302,1.285,0.613,1.924,0.934l0.669,0.337c0.671,0.34,1.334,0.687,1.991,1.04l0.48,0.259 c0.837,0.454,1.666,0.919,2.485,1.395l0.098,0.06c0.738,0.432,1.506,0.895,2.268,1.368l0.628,0.398 c0.587,0.366,1.166,0.741,1.738,1.122c0.238,0.154,0.468,0.309,0.7,0.463c0.587,0.395,1.175,0.799,1.756,1.209l0.553,0.39 c0.767,0.549,1.526,1.104,2.282,1.677l0.104,0.084c0.695,0.526,1.393,1.076,2.082,1.631l0.637,0.518 c0.517,0.424,1.032,0.854,1.543,1.29c0.232,0.198,0.462,0.396,0.692,0.597c0.52,0.448,1.032,0.904,1.541,1.366l0.575,0.521 c0.695,0.639,1.381,1.284,2.058,1.944l0.114,0.113c0.631,0.616,1.255,1.244,1.875,1.884c0.143,0.151,0.285,0.299,0.427,0.448 l0.178,0.188c0.456,0.48,0.91,0.963,1.357,1.454c0.218,0.241,0.436,0.483,0.654,0.724c0.448,0.501,0.893,1.009,1.334,1.521 l0.18,0.21c0.125,0.142,0.253,0.29,0.375,0.436c0.619,0.729,1.227,1.465,1.823,2.215l0.084,0.107 c0.558,0.701,1.119,1.431,1.671,2.169c0.125,0.163,0.247,0.331,0.369,0.497l0.168,0.229c0.14,0.187,0.273,0.376,0.41,0.564 l0.167,0.233c0.602,0.834,1.229,1.729,1.86,2.665l0.14,0.206c0.104,0.154,0.209,0.308,0.314,0.462 c0.587,0.888,1.11,1.707,1.607,2.503l10.45-6.705c-0.997-2.806-1.541-5.825-1.541-8.974c0-13.5,9.964-24.664,22.94-26.549v-13.194 l-0.072-0.005c-0.433-0.018-0.866-0.038-1.3-0.064l-0.767-0.047c-0.296-0.023-0.593-0.046-0.887-0.07l-0.66-0.052 c-0.323-0.026-0.646-0.052-0.968-0.081l-0.386-0.035c-0.404-0.038-0.802-0.084-1.204-0.131l-0.773-0.087 c-0.404-0.044-0.808-0.087-1.215-0.14l-0.677-0.095c-0.75-0.102-1.503-0.213-2.244-0.332c-0.312-0.049-0.616-0.098-0.924-0.151 c-0.704-0.119-1.404-0.247-2.104-0.383l-0.229-0.041c-0.192-0.038-0.384-0.076-0.576-0.113c-1.046-0.21-1.983-0.41-2.861-0.614 l-0.081-0.017c-0.916-0.215-1.826-0.442-2.732-0.681l-0.776-0.209c-0.698-0.192-1.389-0.386-2.078-0.59l-0.067-0.017 c-0.247-0.073-0.491-0.146-0.738-0.221c-0.788-0.238-1.573-0.488-2.352-0.748l-0.396-0.128c-0.907-0.305-1.837-0.633-2.762-0.973 l-0.491-0.189c-0.744-0.279-1.479-0.564-2.212-0.86c-0.235-0.096-0.474-0.192-0.712-0.292c-0.707-0.29-1.416-0.593-2.123-0.904 l-0.543-0.238c-1.75-0.784-3.515-1.634-5.239-2.529l-0.535-0.284c-0.695-0.364-1.389-0.739-2.075-1.125l-0.529-0.297 c-1.718-0.97-3.407-1.991-5.017-3.034l-0.227-0.151c-0.738-0.479-1.468-0.968-2.189-1.465l-0.433-0.3 c-0.718-0.5-1.43-1.008-2.134-1.529l-0.221-0.159c-1.569-1.163-3.143-2.401-4.663-3.678l-0.27-0.227 c-0.68-0.573-1.346-1.151-2.009-1.741l-0.253-0.224c-1.497-1.34-2.964-2.733-4.354-4.14l-0.038-0.038 c-0.651-0.66-1.322-1.357-1.994-2.082l-0.201-0.212c-2.043-2.203-4.002-4.515-5.828-6.875l-0.116-0.154 c-0.587-0.759-1.157-1.524-1.718-2.3l-0.099-0.136c-1.189-1.643-2.343-3.346-3.424-5.056c-10.064-15.891-15.38-34.277-15.38-53.163 c0-22.958,8.006-45.364,22.54-63.081c13.453-16.398,31.9-28.133,52.297-33.351C138.104,37.187,91.017,93.114,91.017,158.042 c0,7.5,0.625,15.032,1.857,22.38l0.555,3.328l-3.174,1.154c-8.369,3.038-16.493,6.945-24.158,11.607 c-54.25,33.027-77.647,99.699-57.207,158.743C-2.484,313.022,15.224,267.659,53.298,244.479z"></path> <path display="none" fill="#ED1F24" d="M385.301,196.511c-7.77-4.73-16.031-8.683-24.556-11.744l-3.187-1.146l0.562-3.34 c1.214-7.308,1.833-14.793,1.833-22.24c0-63.514-44.787-118.172-105.85-131.409c41.987,12.241,71.529,50.957,71.529,95.53 c0,18.865-5.309,37.233-15.351,53.113c-1.088,1.718-2.241,3.43-3.439,5.084l-0.053,0.075c-0.568,0.788-1.156,1.57-1.749,2.343 l-0.119,0.154c-1.819,2.357-3.785,4.677-5.834,6.884l-0.184,0.201c-0.68,0.732-1.357,1.438-2.009,2.098 c-1.428,1.439-2.9,2.843-4.406,4.189l-0.201,0.18c-0.681,0.604-1.36,1.195-2.049,1.779l-0.25,0.209 c-1.534,1.288-3.116,2.535-4.704,3.706l-0.104,0.079c-0.765,0.567-1.504,1.093-2.244,1.61l-0.396,0.273 c-0.731,0.506-1.467,1-2.212,1.485l-0.221,0.143c-1.625,1.052-3.322,2.078-5.04,3.054l-0.491,0.274 c-0.701,0.389-1.404,0.773-2.113,1.148l-0.515,0.267c-1.727,0.901-3.5,1.755-5.265,2.546l-0.491,0.215 c-0.724,0.32-1.444,0.628-2.171,0.927l-0.689,0.279c-0.738,0.299-1.479,0.587-2.227,0.869l-0.488,0.186 c-0.928,0.343-1.86,0.671-2.77,0.979l-0.35,0.111c-0.79,0.264-1.593,0.517-2.397,0.761l-0.779,0.235 c-0.7,0.206-1.401,0.404-2.104,0.593l-0.768,0.209c-0.916,0.238-1.834,0.471-2.762,0.687c-0.942,0.218-1.881,0.418-2.918,0.628 c-0.186,0.034-0.369,0.072-0.55,0.107l-0.244,0.044c-0.703,0.136-1.41,0.264-2.122,0.386c-0.302,0.05-0.607,0.102-0.915,0.148 c-0.747,0.122-1.498,0.23-2.247,0.335l-0.242,0.034c-0.145,0.021-0.29,0.041-0.441,0.061c-0.39,0.05-0.785,0.093-1.18,0.137 l-0.428,0.046c-0.724,0.082-1.45,0.16-2.183,0.227c-0.215,0.018-0.431,0.038-0.643,0.052l-0.288,0.024 c-0.639,0.052-1.282,0.104-1.928,0.142l-0.209,0.015c-0.334,0.02-0.671,0.034-1.005,0.049l-0.597,0.029 c-0.183,0.009-0.369,0.018-0.555,0.026v13.287c12.593,2.213,22.161,13.195,22.161,26.421c0,3.116-0.534,6.107-1.514,8.892 l10.999,7.059c0.538-0.873,1.122-1.786,1.778-2.774c0.097-0.145,0.195-0.29,0.298-0.438l0.147-0.221 c0.637-0.945,1.265-1.843,1.872-2.683l0.175-0.235c0.122-0.175,0.244-0.347,0.369-0.516l0.156-0.215 c0.131-0.177,0.259-0.354,0.394-0.529c0.517-0.688,1.04-1.368,1.569-2.04l0.177-0.227c0.562-0.703,1.157-1.428,1.819-2.212 c0.113-0.134,0.228-0.268,0.347-0.407l0.171-0.195c0.451-0.525,0.907-1.046,1.366-1.558c0.209-0.238,0.422-0.471,0.634-0.704 c0.448-0.488,0.901-0.974,1.36-1.455l0.6-0.632c0.572-0.593,1.151-1.174,1.732-1.746l0.255-0.256c0.66-0.643,1.357-1.306,2.069-1.96 l0.442-0.398c0.553-0.502,1.104-0.999,1.669-1.484l0.616-0.532c0.535-0.456,1.066-0.901,1.604-1.341l0.587-0.485 c0.648-0.52,1.297-1.031,1.954-1.534l0.238-0.183c0.755-0.579,1.543-1.158,2.331-1.724l0.232-0.163 c0.684-0.485,1.375-0.963,2.073-1.434l0.54-0.36c0.619-0.41,1.244-0.817,1.875-1.218l0.522-0.329 c0.732-0.456,1.466-0.901,2.207-1.336l0.177-0.108c1.634-0.953,3.335-1.887,5.053-2.758l0.381-0.192 c0.729-0.372,1.462-0.728,2.2-1.075l0.416-0.198c0.814-0.383,1.637-0.755,2.462-1.116l0.079-0.035c1.77-0.771,3.598-1.5,5.427-2.171 l0.18-0.064c0.843-0.308,1.683-0.602,2.529-0.884l0.302-0.102c3.651-1.209,7.421-2.218,11.194-2.997l0.192-0.041 c3.802-0.778,7.696-1.342,11.569-1.67l0.122-0.012c0.977-0.082,1.949-0.151,2.897-0.201c1.805-0.099,3.64-0.148,5.447-0.148 c18.188,0,36.048,5.02,51.654,14.517c38.074,23.18,55.783,68.543,44.407,110.774C462.953,296.209,439.558,229.538,385.301,196.511z"></path> <path display="none" fill="#ED1F24" d="M294.605,414.506c-16.208-9.87-29.187-24.046-37.526-41.005 c-0.442-0.904-0.884-1.836-1.309-2.767l-0.037-0.087c-0.381-0.834-0.747-1.689-1.107-2.547l-0.192-0.459 c-0.326-0.786-0.642-1.576-0.945-2.366l-0.136-0.346c-0.692-1.826-1.341-3.691-1.925-5.559l-0.122-0.393 c-0.25-0.802-0.482-1.598-0.709-2.397l-0.146-0.515c-0.244-0.884-0.483-1.773-0.7-2.665l-0.021-0.07 c-0.244-0.994-0.472-1.979-0.681-2.956l-0.032-0.146c-0.188-0.896-0.359-1.768-0.526-2.646l-0.101-0.566 c-0.143-0.803-0.276-1.599-0.398-2.396l-0.076-0.482c-0.284-1.904-0.514-3.84-0.691-5.759l-0.043-0.549 c-0.067-0.776-0.126-1.556-0.17-2.335l-0.036-0.662c-0.051-0.85-0.089-1.697-0.111-2.547l-0.009-0.302 c-0.029-0.971-0.04-1.956-0.034-2.937l0.005-0.377c0.006-0.817,0.021-1.64,0.047-2.466l0.026-0.735 c0.031-0.749,0.069-1.497,0.115-2.241l0.041-0.663c0.132-1.9,0.32-3.825,0.564-5.72l0.097-0.716 c0.095-0.721,0.199-1.436,0.312-2.156c0.044-0.268,0.085-0.538,0.131-0.809c0.125-0.775,0.268-1.55,0.413-2.32l0.094-0.505 c0.186-0.953,0.386-1.896,0.601-2.837l0.132-0.559c0.174-0.744,0.354-1.493,0.546-2.237c0.076-0.288,0.148-0.57,0.227-0.855 c0.184-0.681,0.369-1.363,0.569-2.044l0.228-0.781c0.552-1.846,1.165-3.697,1.822-5.503l0.3-0.803 c0.247-0.656,0.5-1.313,0.762-1.968c0.113-0.287,0.229-0.581,0.349-0.872c0.156-0.375,0.313-0.746,0.474-1.121l0.119-0.282 c0.317-0.738,0.643-1.477,0.979-2.212c0.16-0.353,0.326-0.709,0.491-1.064c0.34-0.724,0.692-1.441,1.05-2.157l0.143-0.278 c0.003-0.01,0.006-0.018,0.011-0.023l-10.929-7.015c-4.907,6.331-12.581,10.41-21.211,10.41c-8.599,0-16.247-4.053-21.156-10.343 l-10.38,6.662c0.082,0.163,0.166,0.323,0.244,0.482l0.108,0.218c0.34,0.681,0.671,1.357,0.994,2.044 c0.186,0.398,0.369,0.796,0.555,1.197c0.313,0.692,0.619,1.39,0.918,2.088l0.119,0.279c0.16,0.372,0.317,0.744,0.471,1.115 c0.119,0.291,0.235,0.585,0.354,0.882c0.259,0.645,0.512,1.302,0.756,1.955l0.299,0.803c0.657,1.809,1.271,3.66,1.823,5.503 l0.229,0.79c0.195,0.675,0.387,1.357,0.57,2.038c0.073,0.285,0.152,0.567,0.224,0.853c0.189,0.747,0.375,1.496,0.549,2.243 l0.131,0.55c0.215,0.947,0.413,1.89,0.599,2.837l0.096,0.511c0.145,0.771,0.282,1.545,0.413,2.317 c0.047,0.273,0.087,0.544,0.131,0.817c0.11,0.715,0.218,1.43,0.314,2.15l0.096,0.719c0.241,1.892,0.43,3.816,0.561,5.717 l0.038,0.657c0.049,0.75,0.087,1.498,0.116,2.242l0.029,0.738c0.023,0.828,0.043,1.65,0.046,2.473l0.005,0.364 c0.003,0.988-0.005,1.974-0.032,2.944l-0.012,0.294c-0.023,0.857-0.061,1.705-0.107,2.555l-0.038,0.657 c-0.049,0.784-0.104,1.563-0.171,2.34l-0.046,0.549c-0.172,1.919-0.404,3.854-0.689,5.756l-0.073,0.482 c-0.128,0.8-0.255,1.596-0.398,2.39l-0.104,0.57c-0.163,0.883-0.337,1.755-0.521,2.625l-0.038,0.182 c-0.207,0.966-0.436,1.951-0.674,2.919l-0.023,0.093c-0.221,0.896-0.456,1.785-0.7,2.672l-0.146,0.506 c-0.227,0.806-0.465,1.602-0.709,2.397l-0.122,0.398c-0.587,1.867-1.232,3.732-1.927,5.555l-0.134,0.35 c-0.305,0.79-0.619,1.58-0.945,2.363l-0.192,0.465c-0.36,0.854-0.732,1.71-1.116,2.555l-0.041,0.1 c-0.413,0.907-0.854,1.839-1.3,2.743c-8.339,16.959-21.315,31.135-37.524,41.005c-15.61,9.501-33.473,14.522-51.657,14.525 c-26.019,0.002-51.166-10.272-69.642-28.321c25.479,28.76,61.858,45.146,100.661,45.146c24.557,0,48.687-6.787,69.779-19.627 c6.014-3.66,11.781-7.819,17.139-12.363l2.625-2.221l2.622,2.221c5.36,4.544,11.127,8.703,17.14,12.363 c21.092,12.84,45.218,19.627,69.777,19.627c38.804,0,75.183-16.386,100.661-45.148c-18.473,18.052-43.619,28.321-69.643,28.324 C328.078,429.034,310.215,424.007,294.605,414.506z"></path> <path display="none" fill="#BB161A" d="M371.082,198.128c-21.25,0-38.533,17.283-38.533,38.533 c0,21.248,17.283,38.535,38.533,38.535c21.246,0,38.533-17.287,38.533-38.535C409.615,215.412,392.328,198.128,371.082,198.128z"></path> <path display="none" fill="#FFFFFF" d="M371.082,213.66c-12.68,0-23.002,10.318-23.002,23.001c0,12.681,10.322,23,23.002,23 c12.683,0,22.998-10.318,22.998-23C394.08,223.979,383.764,213.66,371.082,213.66z"></path> <path display="none" fill="#BB161A" d="M167.399,283.225c-3.824,0-7.39-2.406-8.686-6.23c-1.629-4.799,0.94-10.008,5.739-11.635 c50.029-16.973,79.636-67.413,95.667-106.733c1.912-4.694,7.268-6.948,11.962-5.036c4.691,1.912,6.944,7.268,5.032,11.958 c-10.994,26.972-24.286,50.057-39.509,68.608c-19.428,23.685-42.057,40.028-67.256,48.581 C169.371,283.069,168.378,283.225,167.399,283.225z"></path> <path display="none" fill="#BB161A" d="M371.082,221.979c-8.094,0-14.683,6.585-14.683,14.682c0,8.093,6.589,14.679,14.683,14.679 c8.093,0,14.679-6.586,14.679-14.679C385.76,228.565,379.174,221.979,371.082,221.979z"></path> <path display="none" fill="#BB161A" d="M124.673,18.917c2.72,5.439,0.512,12.053-4.928,14.772l-2.462,1.229 c-5.439,2.72-12.049,0.512-14.769-4.924l-6.153-12.311c-2.716-5.439-0.512-12.053,4.927-14.769l2.462-1.233 c5.436-2.72,12.049-0.512,14.769,4.924L124.673,18.917z"></path> <path display="none" fill="#ED1F24" d="M295.042,74.125l-57.665-46.132l-4.173,8.348c-0.007,0.014-0.021,0.028-0.028,0.042 l54.065,43.252c-1.431,8.8-6.981,39.261-20.006,73.417c1.588-0.244,3.252-0.111,4.847,0.54c1.519,0.62,2.752,1.626,3.702,2.831 c15.8-41.34,20.725-76.523,20.94-78.094C296.94,76.73,296.302,75.135,295.042,74.125z"></path> <path display="none" fill="#BB161A" d="M211.048,25.263c-2.72,5.439-0.515,12.053,4.924,14.772l2.462,1.229 c5.44,2.72,12.053,0.512,14.769-4.924l6.153-12.311c2.721-5.439,0.512-12.053-4.924-14.772l-2.462-1.229 c-5.44-2.72-12.053-0.512-14.773,4.924L211.048,25.263z"></path> <path display="none" fill="#BB161A" d="M295.693,473.399c-34.104,0-63.053-11.436-86.09-34.014 c-49.726-48.742-56.68-134.338-57.645-158.646c-33.525-13.25-61.904-40.416-84.422-80.852c-2.465-4.423-0.874-10.012,3.549-12.478 c4.43-2.462,10.016-0.874,12.481,3.552c21.584,38.753,48.619,63.861,80.361,74.629c3.723,1.262,6.227,4.758,6.227,8.689 c0,1.002,0.7,101.479,52.338,152.041c20.066,19.65,45.62,29.324,75.925,28.701c29.663-0.592,51.69-10.484,65.463-29.395 c36.392-49.967,7.881-146.818,7.589-147.793c-1.456-4.852,1.295-9.967,6.146-11.426c4.854-1.459,9.97,1.293,11.429,6.146 c1.3,4.326,31.363,106.623-10.332,163.875c-17.332,23.795-44.224,36.225-79.93,36.938 C297.751,473.389,296.717,473.399,295.693,473.399z"></path> <path display="none" fill="#ED1F24" d="M41.139,79.86l61.695-49.356c-0.098-0.174-0.23-0.324-0.32-0.509l-3.803-7.612 c-0.397,0.164-0.801,0.313-1.153,0.595l-64.22,51.38c-1.26,1.006-1.898,2.601-1.682,4.2c0.229,1.671,5.794,41.462,24.154,86.219 c3.729,9.086,7.738,17.684,11.976,25.833c0.797-1.285,1.884-2.414,3.298-3.201c1.529-0.85,3.193-1.188,4.823-1.121 c-4.423-8.48-8.268-16.869-11.53-24.809C49.013,124.095,42.682,89.364,41.139,79.86z"></path> <path display="none" fill="#BB161A" d="M185.31,276.655c0,12.475-10.109,22.586-22.583,22.586 c-12.475,0-22.587-10.111-22.587-22.586c0-12.471,10.113-22.584,22.587-22.584C175.2,254.071,185.31,264.184,185.31,276.655z"></path> <rect x="333.417" y="125.414" display="none" fill="#BB161A" stroke="#FFFFFF" stroke-width="0.6109" stroke-miterlimit="10" width="17.146" height="120.771"></rect> <polygon display="none" fill="#FFFFFF" stroke="#BB161A" stroke-width="0.6109" stroke-miterlimit="10" points="323.725,97.804 323.725,93.237 262.22,105.828 262.22,255.735 323.725,270.122 323.725,265.423 "></polygon> <path display="none" fill="#ED1F24" d="M259.983,100.958v3.043v153.503v2.961l73.434,17.175v-31.456V125.414V85.927L259.983,100.958 z M323.725,93.237v4.566v167.62v4.698l-61.505-14.387V105.828L323.725,93.237z"></path> <polygon display="none" fill="#BB161A" stroke="#FFFFFF" stroke-width="0.6109" stroke-miterlimit="10" points="441.14,146.412 375.164,82.919 338.26,84.267 338.26,93.694 363.981,96.386 363.981,249.924 346.089,249.924 348.325,266.088 390.82,267.432 394.173,139.486 419.894,165.076 425.487,256.657 443.75,267.432 "></polygon> <polygon display="none" fill="#ED1F24" points="375.164,299.86 380.755,273.021 352.797,271.905 357.271,298.742 "></polygon> <path display="none" fill="#ED1F24" d="M368.71,315.733c-0.646-3.089,1.608-13.266,1.608-13.266h-5.22 c-2.107,2.885-3.536,7.546-2.334,12.143c1.774,6.782,7.151,13.366,7.151,13.366s2.854,4.602,1.277,4.04 c-2.938-1.042-11.848-7.058-16.934-3.02c-6.423,5.104-2.81,15.307,0,20.406c1.579,2.867,9.801,11.605,11.436,14.134 c1.275,1.972-1.282,1.83-1.282,1.83s-10.008-5.309-19.24,1.838c-9.234,7.14,4.356,16.153,4.356,16.153l7.226,5.104 c0,0,6.375,6.41,11.153,17.056c4.188,9.339,1.605-15.3,1.605-15.3l-7.226-6.126c0,0-12.998-8.047-9.785-12.123 c3.211-4.084,17.011,5.665,23.033,3.622c6.021-2.04,1.204-11.223,1.204-11.223s-9.245-10.332-12.848-14.965 c-10.658-13.72,2.812-11.223,2.812-11.223s10.035,3.061,13.247,1.021c3.212-2.043-0.401-9.184-0.401-9.184 S369.361,318.822,368.71,315.733z"></path> <rect x="95.934" y="125.414" display="none" fill="#BB161A" stroke="#FFFFFF" stroke-width="0.6109" stroke-miterlimit="10" width="17.146" height="120.771"></rect> <polygon display="none" fill="#FFFFFF" stroke="#BB161A" stroke-width="0.6109" stroke-miterlimit="10" points="122.772,97.804 122.772,93.237 184.275,105.828 184.275,255.735 122.772,270.122 122.772,265.423 "></polygon> <path display="none" fill="#ED1F24" d="M113.08,85.927v39.486v120.771v31.456l73.433-17.175v-2.961V104.001v-3.043L113.08,85.927z M122.772,270.122v-4.698V97.804v-4.566l61.503,12.59v149.907L122.772,270.122z"></path> <polygon display="none" fill="#BB161A" stroke="#FFFFFF" stroke-width="0.6109" stroke-miterlimit="10" points="5.355,146.412 71.331,82.919 108.234,84.267 108.234,93.694 82.514,96.386 82.514,249.924 100.407,249.924 98.171,266.088 55.676,267.432 52.321,139.486 26.601,165.076 21.011,256.657 2.745,267.432 "></polygon> <polygon display="none" fill="#ED1F24" points="71.331,299.86 65.741,273.021 93.696,271.905 89.225,298.742 "></polygon> <path display="none" fill="#ED1F24" d="M77.784,315.733c0.649-3.089-1.605-13.266-1.605-13.266h5.219 c2.105,2.885,3.536,7.546,2.334,12.143c-1.775,6.782-7.151,13.366-7.151,13.366s-2.854,4.602-1.28,4.04 c2.941-1.042,11.848-7.058,16.935-3.02c6.423,5.104,2.811,15.307,0,20.406c-1.58,2.867-9.8,11.605-11.437,14.134 c-1.274,1.972,1.283,1.83,1.283,1.83s10.007-5.309,19.24,1.838c9.233,7.14-4.355,16.153-4.355,16.153l-7.227,5.104 c0,0-6.375,6.41-11.152,17.056c-4.19,9.339-1.607-15.3-1.607-15.3l7.226-6.126c0,0,12.998-8.047,9.787-12.123 c-3.212-4.084-17.013,5.665-23.035,3.622c-6.021-2.04-1.204-11.223-1.204-11.223S79,354.036,82.601,349.403 c10.66-13.72-2.809-11.223-2.809-11.223s-10.038,3.061-13.249,1.021c-3.211-2.043,0.402-9.184,0.402-9.184 S77.135,318.822,77.784,315.733z"></path> <path display="none" fill="#ED1F24" d="M239.107,183.452l52.211,3.563l-76.068-28.913l8.202,24.601l-58.179-5.847 c-0.045,0.067-0.089,0.132-0.134,0.2l78.442,30.25L239.107,183.452z"></path> <path display="none" fill="#ED1F24" stroke="#FFFFFF" stroke-width="2.0505" stroke-miterlimit="10" d="M112.58,365.593 c0-80.447,9.841-157.488,107.649-157.488c96.986,0,107.65,77.041,107.65,157.488H112.58z"></path> <g display="none"> <path display="inline" fill="#ED1F24" d="M220.229,218.599c-33.029,0-59.9-26.872-59.9-59.901c0-33.029,26.871-59.899,59.9-59.899 c33.029,0,59.9,26.871,59.9,59.899C280.129,191.728,253.258,218.599,220.229,218.599z"></path> <g display="inline"> <path fill="#FFFFFF" d="M220.229,99.824c32.519,0,58.875,26.361,58.875,58.874c0,32.517-26.355,58.876-58.875,58.876 c-32.517,0-58.875-26.359-58.875-58.876C161.354,126.185,187.712,99.824,220.229,99.824 M220.229,97.773 c-33.594,0-60.925,27.331-60.925,60.924c0,33.595,27.331,60.926,60.925,60.926s60.925-27.332,60.925-60.926 C281.155,125.104,253.824,97.773,220.229,97.773L220.229,97.773z"></path> </g> </g> <path display="none" fill="#BB161A" stroke="#FFFFFF" stroke-width="2.0505" stroke-miterlimit="10" d="M4.218,395.617 c0-42.912,9.841-119.953,107.649-119.953c96.986,0,107.65,77.041,107.65,119.953H4.218z"></path> <g display="none"> <path display="inline" fill="#BB161A" d="M111.868,292.417c-33.029,0-59.9-26.872-59.9-59.901c0-33.029,26.871-59.9,59.9-59.9 s59.9,26.871,59.9,59.9C171.768,265.545,144.897,292.417,111.868,292.417z"></path> <g display="inline"> <path fill="#FFFFFF" d="M111.868,173.642c32.518,0,58.875,26.36,58.875,58.875c0,32.516-26.357,58.876-58.875,58.876 c-32.517,0-58.875-26.36-58.875-58.876C52.993,200.001,79.351,173.642,111.868,173.642 M111.868,171.591 c-33.594,0-60.925,27.331-60.925,60.925c0,33.595,27.331,60.927,60.925,60.927s60.925-27.332,60.925-60.927 C172.793,198.922,145.462,171.591,111.868,171.591L111.868,171.591z"></path> </g> </g> <path display="none" fill="#BB161A" stroke="#FFFFFF" stroke-width="2.0505" stroke-miterlimit="10" d="M231.089,395.617 c0-42.912,9.841-119.953,107.649-119.953c96.985,0,107.65,77.041,107.65,119.953H231.089z"></path> <g display="none"> <path display="inline" fill="#BB161A" d="M338.739,292.417c-33.029,0-59.9-26.872-59.9-59.901c0-33.029,26.871-59.9,59.9-59.9 c33.03,0,59.902,26.871,59.902,59.9C398.641,265.545,371.769,292.417,338.739,292.417z"></path> <g display="inline"> <path fill="#FFFFFF" d="M338.739,173.642c32.518,0,58.877,26.36,58.877,58.875c0,32.516-26.359,58.876-58.877,58.876 s-58.875-26.36-58.875-58.876C279.864,200.001,306.221,173.642,338.739,173.642 M338.739,171.591 c-33.595,0-60.926,27.331-60.926,60.925c0,33.595,27.331,60.927,60.926,60.927c33.596,0,60.928-27.332,60.928-60.927 C399.667,198.922,372.334,171.591,338.739,171.591L338.739,171.591z"></path> </g> </g> <path display="none" fill="#ED1F24" d="M272.16,229.256c3.713-11.139,10.956-12.802,14.943-12.802c1.548,0,2.652,0.249,2.965,0.329 c4.075,0.159,8.124,0.239,12.034,0.239c51.742,0,88.964-13.819,110.632-41.074c29.169-36.692,19.998-86.228,18.905-91.537 L330.346,68.957l0.053-0.653c0.017-0.202,1.368-20.344-21.961-35.344c-11.204-7.203-29.43-11.503-48.753-11.503 c-15.462,0-31.086,2.624-46.127,7.617c22.09,49.041,48.918,110.612,52.345,127.744c0.829,4.148-0.849,7.856-4.725,10.441 c-4.88,3.254-13.307,4.812-23.817,4.812c-27.621,0-69.647-10.76-99.626-29.796c0.512,6.057,1.198,11.907,1.845,17.423 c1.014,8.634,1.971,16.789,1.971,23.503c0,27.78-3.827,33.453-12.213,45.881c-1.5,2.223-3.2,4.742-5.037,7.628 c-11.82,18.573-102.041,60.773-108.088,63.587c-9.029,14.467-14,29.073-14.776,43.422c48.861,42.977,110.672,76.751,180.547,98.909 v-1.648c0-0.945,0.077-23.455,6.756-50.337c8.693-34.987,24.694-60.806,46.347-74.84c-0.668-11.005-2.036-60.128,25.771-70.24 l3.373-1.227l1.07,3.426c1.208,3.864,2.771,8.392,4.55,13.075C269.727,244.842,270.5,234.236,272.16,229.256z M295.963,74.578 c4.614,0,8.355,3.741,8.355,8.355s-3.741,8.355-8.355,8.355s-8.355-3.741-8.355-8.355S291.349,74.578,295.963,74.578z"></path> <path display="none" fill="#ED1F24" d="M137.311,136.522l1.266-1.883c42.57,28.619,105.781,35.599,118.797,26.916 c1.926-1.284,2.006-2.39,1.806-3.393c-3.485-17.424-34.043-86.701-52.1-126.775c-12.271,4.686-24.069,10.96-34.972,18.699 C139.209,73.431,135.48,106.902,137.311,136.522z"></path> <path display="none" fill="#FFFFFF" d="M181.984,442.629C112.109,420.471,50.298,386.697,1.437,343.72 c0.777-14.349,5.748-28.955,14.776-43.422c6.047-2.813,96.268-45.014,108.088-63.587c1.837-2.886,3.537-5.406,5.037-7.628 c8.386-12.429,12.213-18.101,12.213-45.881c0-6.715-0.958-14.87-1.971-23.503c-0.647-5.516-1.333-11.367-1.845-17.423 c-0.504-0.32-0.996-0.648-1.493-0.973c0.523,6.461,1.255,12.697,1.944,18.56c1.008,8.591,1.961,16.707,1.961,23.339 c0,27.351-3.505,32.545-11.973,45.096c-1.505,2.23-3.21,4.758-5.057,7.66c-11.751,18.465-106.726,62.71-107.684,63.155l-0.188,0.088 l-0.111,0.176C5.834,314.22,0.749,329.23,0.017,343.988L0,344.326l0.254,0.225c51.812,45.648,118.171,80.961,193.261,103.068 l-11.531-4.247V442.629z"></path> <path display="none" fill="#FFFFFF" d="M137.311,136.522c-1.831-29.62,1.898-63.091,34.797-86.436 c10.903-7.739,22.702-14.013,34.972-18.699c-0.066-0.147-0.134-0.297-0.2-0.443l6.25-2.817c0.142,0.314,0.285,0.632,0.427,0.947 c15.042-4.993,30.666-7.617,46.127-7.617c19.323,0,37.549,4.3,48.753,11.503c23.329,15,21.978,35.143,21.961,35.344l-0.053,0.653 l101.293,15.454c1.093,5.309,10.264,54.845-18.905,91.537c-21.668,27.255-58.89,41.074-110.632,41.074 c-3.91,0-7.959-0.081-12.034-0.239c-0.312-0.08-1.417-0.329-2.965-0.329c-3.987,0-11.23,1.663-14.943,12.802 c-1.66,4.98-2.433,15.586-2.309,31.583c0.469,1.234,0.952,2.479,1.449,3.726c-0.268-17.743,0.479-29.728,2.191-34.864 c3.435-10.303,10.002-11.842,13.611-11.842c1.591,0,2.658,0.295,2.669,0.298l0.164,0.026c4.119,0.162,8.213,0.244,12.166,0.244 c52.198,0,89.793-14.001,111.738-41.615c31.122-39.159,19.192-92.645,19.068-93.181l-0.108-0.464L331.82,67.762 c0.032-3.687-0.957-22.053-22.622-35.983c-11.593-7.452-29.64-11.726-49.513-11.726c-30.754,0-62.145,10.259-88.39,28.888 c-34.175,24.251-37.396,59.079-35.269,89.492L137.311,136.522z"></path> <path display="none" fill="#FFFFFF" d="M137.735,142.275c29.979,19.036,72.005,29.796,99.626,29.796 c10.511,0,18.938-1.559,23.817-4.812c3.876-2.585,5.554-6.292,4.725-10.441c-3.427-17.132-30.255-78.703-52.345-127.744 c-0.142-0.315-0.285-0.633-0.427-0.947l-6.25,2.817c0.066,0.146,0.133,0.296,0.2,0.443c18.056,40.075,48.614,109.352,52.1,126.775 c0.2,1.003,0.12,2.108-1.806,3.393c-13.017,8.683-76.227,1.703-118.797-26.916l-1.266,1.883l-1.285,1.911l-1.274,1.896 c0.49,0.329,0.993,0.65,1.49,0.974C136.739,141.627,137.231,141.955,137.735,142.275z"></path> <circle display="none" fill="#FFFFFF" cx="295.963" cy="82.933" r="8.355"></circle> <path display="none" fill="#BB161A" d="M444.53,366.902c-7.292-2.481-31.145-10.771-41.319-16.422 c-11.952-6.641-19.508-30.406-20.938-35.234c-9.867-13.399-27.94-20.192-53.73-20.192c-21.637,0-40.762,5.045-40.953,5.096 l-1.339,0.357l-1.213-0.673c-10.762-5.983-21.422-35.387-25.077-46.323c-22.126,12.653-17.938,63.265-17.891,63.798l0.187,2.12 l-1.816,1.109c-46.259,28.207-51.053,103.712-51.544,118.073l35.109,12.932c32.527,7.85,66.327,13.194,100.543,15.903 c-0.022-0.065-0.045-0.131-0.067-0.195c-1.659-4.767-3.091-8.883-3.42-12.317c-0.591-6.187,2.667-8.667,5.504-9.658 c17.56-6.138,33.303-17.358,33.46-17.471l0.97-0.695l1.191,0.057c2.785,0.133,5.537,0.2,8.182,0.2c0.002,0,0.005,0,0.007,0 c25.383,0,43.75-6.024,54.597-17.905c11.506-12.604,10.271-27.743,10.257-27.895l-0.305-3.347l3.339-0.383 c1.944-0.216,3.32-0.935,4.328-2.261C444.366,373.239,444.637,369.444,444.53,366.902z M356.303,349.491 c-4.206,0-7.616-3.41-7.616-7.617c0-4.203,3.41-7.612,7.616-7.612c4.207,0,7.616,3.409,7.616,7.612 C363.919,346.081,360.51,349.491,356.303,349.491z"></path> <path display="none" fill="#FFFFFF" d="M451.109,363.8l-0.339-2.036l-1.958-0.652c-0.309-0.103-30.994-10.362-42.272-16.625 c-8.554-4.753-15.783-24.504-17.847-31.714l-0.163-0.569l-0.344-0.48c-11.151-15.611-31.219-23.526-59.645-23.526 c-19.253,0-36.152,3.718-41.213,4.947c-5.056-3.943-11.157-16.352-16.028-28.58c-0.497-1.247-0.98-2.491-1.449-3.726 c-1.779-4.684-3.342-9.211-4.55-13.075l-1.07-3.426l-3.373,1.227c-27.807,10.112-26.438,59.235-25.771,70.24 c-21.653,14.034-37.654,39.853-46.347,74.84c-6.68,26.882-6.756,49.392-6.756,50.337v1.648v0.742l11.531,4.247l28.306,10.426 l0.379,0.115c34.589,8.359,70.597,13.915,107.022,16.513l5.095,0.363l-1.594-4.852c-0.592-1.804-1.195-3.536-1.77-5.188 c-1.513-4.348-2.819-8.103-3.069-10.716c-0.204-2.134,0.301-2.311,0.94-2.533c16.114-5.634,30.371-15.043,34.206-17.682 c2.493,0.103,4.955,0.155,7.335,0.155c0.003,0,0.003,0,0.007,0c27.465,0,47.573-6.812,59.76-20.248 c10.329-11.387,11.874-24.244,11.996-30.007c2.403-0.819,4.423-2.265,5.938-4.27C452.601,373.702,451.275,364.795,451.109,363.8z M438.261,377.836l-3.339,0.383l0.305,3.347c0.015,0.151,1.249,15.291-10.257,27.895c-10.847,11.881-29.214,17.905-54.597,17.905 c-0.002,0-0.005,0-0.007,0c-2.645,0-5.396-0.067-8.182-0.2l-1.191-0.057l-0.97,0.695c-0.157,0.112-15.9,11.333-33.46,17.471 c-2.837,0.991-6.095,3.472-5.504,9.658c0.329,3.435,1.761,7.551,3.42,12.317c0.022,0.064,0.045,0.13,0.067,0.195 c-34.217-2.709-68.017-8.054-100.543-15.903l-35.109-12.932c0.491-14.361,5.285-89.866,51.544-118.073l1.816-1.109l-0.187-2.12 c-0.048-0.533-4.235-51.145,17.891-63.798c3.655,10.937,14.315,40.34,25.077,46.323l1.213,0.673l1.339-0.357 c0.191-0.051,19.316-5.096,40.953-5.096c25.79,0,43.863,6.793,53.73,20.192c1.431,4.828,8.986,28.594,20.938,35.234 c10.175,5.65,34.027,13.94,41.319,16.422c0.107,2.542-0.164,6.337-1.94,8.674C441.582,376.902,440.206,377.621,438.261,377.836z"></path> <circle display="none" fill="#FFFFFF" cx="356.303" cy="341.876" r="7.615"></circle> <path display="none" fill="none" d="M97.946,101.205l72.452-43.238c1.056-0.63,1.186-2.403,0.285-3.906 c-0.912-1.534-2.538-2.263-3.59-1.636L94.638,95.662c-1.056,0.63-1.162,2.393-0.247,3.924 C95.292,101.092,96.89,101.834,97.946,101.205z"></path> <path display="none" fill="none" d="M322.495,372.696l-19.634,11.44c-2.579,5.678-2.438,12.477,0.988,18.218 c5.571,9.33,17.667,12.385,27.004,6.813c9.333-5.567,12.359-17.649,6.792-26.982C334.292,376.566,328.561,373.241,322.495,372.696z"></path> <rect x="134.975" y="72.594" transform="matrix(0.8587 -0.5124 0.5124 0.8587 -85.2657 146.2443)" display="none" fill="#FFFFFF" width="175.235" height="310.328"></rect> <path display="none" fill="#FFFFFF" d="M310.687,375.375c-3.578,2.135-6.225,5.232-7.826,8.761l19.634-11.44 C318.511,372.338,314.385,373.168,310.687,375.375z"></path> <path display="none" fill="#ED1F24" d="M227.812,19.969c-6.574-11.015-20.796-14.605-31.783-8.048l-150.78,89.978 c-10.987,6.557-14.581,20.778-8.007,31.793L229.265,455.47c6.557,10.991,20.774,14.577,31.766,8.021l150.78-89.978 c10.987-6.557,14.58-20.774,8.023-31.765L227.812,19.969z M67.842,139.414L218.32,49.615l159.023,266.488l-150.479,89.798 L67.842,139.414z M94.638,95.662l72.455-43.238c1.052-0.626,2.678,0.102,3.59,1.636c0.901,1.503,0.771,3.276-0.285,3.906 l-72.452,43.238c-1.056,0.63-2.654-0.112-3.555-1.619C93.477,98.055,93.583,96.292,94.638,95.662z M330.853,409.167 c-9.337,5.571-21.433,2.517-27.004-6.813c-3.427-5.741-3.567-12.54-0.988-18.218c1.602-3.528,4.248-6.626,7.826-8.761 c3.698-2.207,7.824-3.037,11.808-2.68c6.066,0.545,11.798,3.87,15.15,9.489C343.212,391.518,340.186,403.6,330.853,409.167z"></path> <rect x="229.603" y="155.499" transform="matrix(-0.5124 -0.8587 0.8587 -0.5124 394.0333 552.7409)" display="none" fill="#BB161A" width="248.66" height="18.021"></rect> <rect x="384.553" y="42.374" transform="matrix(0.8587 -0.5124 0.5124 0.8587 -12.28 220.391)" display="none" fill="#BB161A" width="18.02" height="180.186"></rect> <rect x="-20.288" y="304.622" transform="matrix(-0.5124 -0.8587 0.8587 -0.5124 -111.9664 563.6931)" display="none" fill="#BB161A" width="248.659" height="18.02"></rect> <rect x="-33.071" y="324.286" transform="matrix(-0.5124 -0.8587 0.8587 -0.5124 -199.9645 553.0582)" display="none" fill="#BB161A" width="180.189" height="18.02"></rect> <path display="none" fill="#ED1F24" d="M352.534,272.363c-13.215,0-23.927-10.707-23.927-23.92 c0-58.929-47.937-106.873-106.864-106.873c-13.215,0-23.925-10.71-23.925-23.923c0-13.22,10.71-23.93,23.925-23.93 c85.312,0,154.716,69.411,154.716,154.727C376.458,261.656,365.749,272.363,352.534,272.363z"></path> <path display="none" fill="#ED1F24" d="M297.743,272.363c-7.816,0-14.15-6.334-14.15-14.146c0-34.854-28.354-63.205-63.204-63.205 c-7.814,0-14.15-6.337-14.15-14.153c0-7.82,6.335-14.15,14.15-14.15c50.456,0,91.504,41.05,91.504,91.508 C311.892,266.029,305.557,272.363,297.743,272.363z"></path> <path display="none" fill="#ED1F24" d="M422.507,280.787c-13.896,0-25.158-11.264-25.158-25.156 c0-100.797-82.001-182.799-182.797-182.799c-13.895,0-25.157-11.264-25.157-25.16c0-13.89,11.262-25.153,25.157-25.153 c128.537,0,233.11,104.576,233.11,233.112C447.663,269.523,436.401,280.787,422.507,280.787z"></path> <path display="none" fill="#ED1F24" d="M398.95,394.409c10.254-10.254,10.254-26.882,0-37.132l-62.142-49.887 c-10.25-10.251-26.874-10.251-37.129,0l-0.283,0.282l-0.534-1.1l-25.042,29.132c-10.253,10.247-31.906,5.22-48.366-11.242 l-94.002-94c-14.604-14.605-20.201-33.291-14.121-44.482c1.3-0.89,2.543-1.913,3.699-3.067l29.128-25.044 c10.254-10.247,10.254-26.878,0-37.129l-49.886-62.141c-10.253-10.25-26.877-10.25-37.129,0L29.931,91.806 c-1.118,1.122-2.104,2.315-2.977,3.566l-0.398-0.191c-39.03,39.035-45.347,96.004,97.23,238.581 c132.77,132.771,199.546,136.262,238.579,97.229l-0.191-0.394c1.251-0.879,2.446-1.863,3.566-2.978L398.95,394.409z"></path> <path display="none" fill="#ED1F24" d="M372.555,50.629c-72.033-32.755-129.612,19.348-147.369,38.333 c3.723,0.218,6.662,2.505,6.662,5.316v63.668c0.994-0.077,1.918-0.821,2.479-2.798c1.811-6.329-1.805-37.035,0.906-43.363 c2.71-6.319,1.802-21.68,25.292-16.257c23.487,5.423,56.002,48.776,61.422,60.524c5.422,11.738,29.812,65.036,30.715,113.812 c0.757,40.768-1.019,65.689-3.202,74.381c55.92-57.539,76.605-104.041,87.77-122.068C454.386,194.463,459.662,90.218,372.555,50.629 z"></path> <path display="none" fill="#ED1F24" d="M96.661,269.866c0.904-48.776,25.295-102.074,30.715-113.812 c5.419-11.748,37.934-55.102,61.421-60.524c23.489-5.423,22.583,9.938,25.293,16.257c2.709,6.328-0.903,37.034,0.905,43.363 c0.546,1.925,1.432,2.663,2.399,2.779V94.279c0-2.911,3.14-5.274,7.048-5.345c-17.783-19.007-75.343-71.042-147.337-38.304 C-9.983,90.218-4.727,194.463,12.43,222.178c11.131,17.976,31.742,64.272,87.307,121.589 C97.611,334.627,95.919,309.851,96.661,269.866z"></path> <path display="none" fill="#BB161A" d="M324.661,335.803c-21.222-19.87-48.784-23.483-65.942-29.812 c-17.163-6.314-28.906-35.225-29.81-48.779c-0.901-13.542,7.229-84.906,1.809-85.811c-5.419-0.899-5.419-0.899-5.419-0.899 l0.146-1.253c-0.273,0.023-0.541,0.058-0.824,0.058c-0.255,0-0.493-0.032-0.739-0.052l0.146,1.247c0,0,0,0-5.421,0.899 c-5.418,0.905,2.712,72.269,1.808,85.811c-0.903,13.555-12.646,42.465-29.808,48.779c-17.16,6.328-52.47,17.165-65.941,29.812 c-10.941,10.267-16.192,13.419-19.236,13.735c29.425,29.477,68.04,61.636,119.316,94.245v0.106c0.042-0.02,0.064-0.042,0.083-0.064 c0.022,0.022,0.045,0.045,0.084,0.064v-0.106c51.262-32.6,89.868-64.75,119.291-94.22 C341.212,349.426,335.976,346.402,324.661,335.803z"></path> <path display="none" fill="#FFFFFF" d="M352.662,269.866c-0.903-48.776-25.293-102.074-30.715-113.812 c-5.42-11.748-37.935-55.102-61.422-60.524c-23.49-5.423-22.582,9.938-25.292,16.257c-2.711,6.328,0.904,37.034-0.906,43.363 c-0.561,1.977-1.484,2.721-2.479,2.798V94.279c0-2.956-3.237-5.358-7.229-5.358c-3.992,0-7.225,2.402-7.225,5.358v63.648 c-0.968-0.116-1.854-0.854-2.399-2.779c-1.808-6.329,1.805-37.035-0.905-43.363c-2.709-6.319-1.804-21.68-25.293-16.257 c-23.487,5.423-56.001,48.776-61.421,60.524c-5.42,11.738-29.812,65.036-30.715,113.812c-0.905,48.777,1.81,74.962,4.519,77.679 c2.71,2.715,5.034,5.575,23.485-11.741c13.471-12.646,48.781-23.483,65.941-29.812c17.162-6.314,28.905-35.225,29.808-48.779 c0.904-13.542-7.227-84.906-1.808-85.811c5.421-0.899,5.421-0.899,5.421-0.899l-0.146-1.247c0.247,0.02,0.484,0.052,0.739,0.052 c0.283,0,0.551-0.035,0.824-0.058l-0.146,1.253c0,0,0,0,5.419,0.899c5.42,0.905-2.71,72.269-1.809,85.811 c0.903,13.555,12.646,42.465,29.81,48.779c17.158,6.328,44.721,9.941,65.942,29.812c18.468,17.297,20.773,14.456,23.483,11.741 C350.851,344.828,353.566,318.643,352.662,269.866z"></path> <path display="none" fill="#FFFFFF" d="M373.718,47.198C300.748,14.016,242.494,67.37,225.029,86.163 C207.568,67.37,149.311,14.016,76.344,47.198C-11.312,87.044-6.022,191.967,11.248,219.862c1.261,2.036,2.665,4.478,4.201,7.213 c2.554,4.538,5.542,9.987,9.127,16.266c12.265,21.461,31.584,52.419,64.594,88.35c2.596,2.827,5.28,5.682,8.048,8.567 c30.472,31.749,71.557,66.935,127.726,102.654v0.106c0.043-0.02,0.065-0.042,0.085-0.065c0.022,0.023,0.046,0.046,0.085,0.065 v-0.106c116.393-74.021,168.256-145.794,194.315-189.235c3.146-5.241,5.91-10.054,8.371-14.424 c4.582-8.142,8.125-14.729,11.01-19.391C456.082,191.967,461.39,87.044,373.718,47.198z"></path> <path display="none" fill="#BB161A" d="M230.275,269.876l-109.534,36.511l67.217-250.525 c-27.666-16.813-66.864-29.017-111.611-8.667c-87.656,39.846-82.366,144.77-65.1,172.664c1.265,2.036,2.665,4.477,4.201,7.213 c2.554,4.537,5.542,9.986,9.131,16.265c12.262,21.461,31.584,52.42,64.591,88.351c2.6,2.826,5.284,5.682,8.051,8.566 c26.596,27.711,61.281,58.04,107.023,89.061L230.275,269.876z"></path> <path display="none" fill="#ED1F24" d="M373.718,47.182c-30.891-14.045-59.123-12.56-82.76-4.781l-57.365,157.76l106.213-19.915 l-134.679,249.65c6.392,4.32,12.988,8.654,19.817,12.998v0.106c0.043-0.02,0.065-0.042,0.085-0.064 c0.022,0.022,0.046,0.045,0.085,0.064v-0.106c116.393-74.02,168.256-145.794,194.315-189.234c3.146-5.242,5.91-10.055,8.371-14.424 c4.582-8.143,8.125-14.729,11.01-19.391C456.082,191.951,461.39,87.028,373.718,47.182z"></path> <path display="none" fill="#FFFFFF" d="M387.795,222.409l-17.067-116.063c-0.61-4.124-4.225-7.101-8.348-7.078 c-4.166,0.078-7.623,3.237-8.081,7.376l-18.993,172.757l-15.529-77.638c-0.736-3.701-3.883-6.432-7.648-6.646 c-3.806-0.25-7.201,2.146-8.357,5.733l-8.441,26.263l-33.97-5.944l-10.078-111.995c-0.38-4.204-3.86-7.451-8.084-7.536 c-0.056-0.003-0.11-0.003-0.169-0.003c-4.146,0-7.669,3.078-8.208,7.208l-22.421,171.312L199.14,202 c-0.659-3.876-3.951-6.756-7.879-6.889c-3.929-0.11-7.416,2.509-8.338,6.331l-6.406,26.539l-38.285-7.828l-12.376-117.024 c-0.451-4.243-4.071-7.344-8.312-7.412c-4.266,0.039-7.805,3.309-8.175,7.555L95.181,264.33l-9.61-61.051 c-0.542-3.441-3.182-6.175-6.601-6.841c-3.422-0.675-6.893,0.88-8.685,3.87l-15.419,25.701l-39.645,1.211 c2.558,4.545,5.552,10.003,9.144,16.292l35.53-1.085c2.818-0.087,5.396-1.601,6.847-4.02l6.01-10.019l16.312,103.618 c2.601,2.831,5.289,5.691,8.062,8.581c0.221,0.01,0.435,0.045,0.659,0.039c4.182-0.144,7.6-3.38,7.967-7.549l12.617-143.228 l4.026,38.071c0.38,3.591,3.039,6.52,6.578,7.243l52.061,10.646c3.195,0.646,6.344-0.627,8.221-3.056l16.036,94.534 c0.675,3.986,4.133,6.896,8.162,6.896c0.055,0,0.107,0,0.159,0c4.101-0.077,7.526-3.143,8.055-7.207l19.844-151.598l3.922,43.596 c0.338,3.728,3.133,6.77,6.821,7.416l47.327,8.282c4.068,0.728,8.049-1.688,9.314-5.623l0.894-2.783l19.778,98.892 c0.799,4.007,4.318,6.767,8.483,6.652c4.081-0.182,7.422-3.309,7.87-7.37l17.799-161.899l8.366,56.896 c0.422,2.866,2.312,5.305,4.984,6.432l42.798,17.996c3.148-5.25,5.918-10.071,8.383-14.448L387.795,222.409z"></path> <path display="none" fill="#BB161A" d="M66.743,238.408c-1.451,2.419-4.029,3.933-6.847,4.02l-35.53,1.085 C36.649,265.008,56,296.017,89.064,332.007L72.752,228.389L66.743,238.408z"></path> <path display="none" fill="#BB161A" d="M377.069,235.87c-2.673-1.127-4.562-3.565-4.984-6.432l-8.366-56.896l-17.799,161.899 c-0.448,4.062-3.789,7.188-7.87,7.37c-4.165,0.114-7.685-2.646-8.483-6.652l-19.778-98.892l-0.894,2.783 c-1.266,3.935-5.246,6.351-9.314,5.623l-47.327-8.282c-3.688-0.646-6.483-3.688-6.821-7.416l-3.922-43.596l-19.844,151.598 c-0.529,4.064-3.955,7.13-8.055,7.207c-0.052,0-0.104,0-0.159,0c-4.029,0-7.487-2.909-8.162-6.896l-16.036-94.534 c-1.876,2.429-5.026,3.701-8.221,3.056l-52.061-10.646c-3.539-0.724-6.198-3.652-6.578-7.243l-4.026-38.071l-12.617,143.228 c-0.367,4.169-3.786,7.405-7.967,7.549c-0.224,0.006-0.438-0.029-0.659-0.039c30.522,31.801,71.674,67.044,127.936,102.822v0.107 c0.042-0.02,0.065-0.042,0.084-0.064c0.022,0.022,0.045,0.045,0.084,0.064v-0.107c116.586-74.142,168.533-146.033,194.637-189.545 L377.069,235.87z"></path> <path display="none" fill="#ED1F24" d="M374.079,47.048c-73.09-33.236-131.439,20.204-148.933,39.029 c-17.49-18.825-75.843-72.265-148.929-39.029c-87.799,39.912-82.5,145.007-65.204,172.949c1.263,2.038,2.667,4.483,4.208,7.224 l39.645-1.211l15.419-25.701c1.792-2.99,5.263-4.545,8.685-3.87c3.419,0.666,6.059,3.399,6.601,6.841l9.61,61.051l14.188-161.059 c0.37-4.247,3.909-7.516,8.175-7.555c4.24,0.068,7.86,3.169,8.312,7.412l12.376,117.024l38.285,7.828l6.406-26.539 c0.922-3.822,4.409-6.441,8.338-6.331c3.928,0.133,7.22,3.013,7.879,6.889l13.26,78.154l22.421-171.312 c0.539-4.13,4.062-7.208,8.208-7.208c0.059,0,0.113,0,0.169,0.003c4.224,0.084,7.704,3.332,8.084,7.536l10.078,111.995l33.97,5.944 l8.441-26.263c1.156-3.587,4.552-5.983,8.357-5.733c3.766,0.214,6.912,2.945,7.648,6.646l15.529,77.638l18.993-172.757 c0.458-4.139,3.915-7.298,8.081-7.376c4.123-0.023,7.737,2.954,8.348,7.078l17.067,116.063l40.454,17.009 c4.591-8.155,8.14-14.753,11.029-19.421C456.577,192.055,461.895,86.959,374.079,47.048z"></path> </svg> 